<svg xmlns="http://www.w3.org/2000/svg" xml:space="preserve" style="fill-rule:evenodd;clip-rule:evenodd;stroke-linejoin:round;stroke-miterlimit:2" viewBox="0 0 128 128" width="128" height="128"><path d="M3.209 88.556V37.117a7.54 7.54 0 0 1 3.839-6.564L52.234 5.136a7.53 7.53 0 0 1 3.693-.968c4.131 0 7.53 3.399 7.53 7.53v2.94l5.367-1.61a7.5 7.5 0 0 1 2.165-.318c4.131 0 7.53 3.399 7.53 7.53v3.058l6.597-.825q.465-.058.935-.058c4.131 0 7.53 3.399 7.53 7.53v65.781c0 4.131-3.399 7.53-7.53 7.53q-.47 0-.935-.058l-6.597-.825v3.058c0 4.131-3.399 7.53-7.53 7.53a7.5 7.5 0 0 1-2.165-.318l-5.367-1.61v2.94c0 4.131-3.399 7.53-7.53 7.53a7.53 7.53 0 0 1-3.693-.968L7.048 95.118a7.54 7.54 0 0 1-3.839-6.564z" style="fill:#fff;fill-rule:nonzero" transform="translate(14.602 -.002)scale(1.01855)"/><path d="M64.527 114.458v3.147c0 4.425-3.641 8.066-8.066 8.066a8.07 8.07 0 0 1-3.954-1.036L4.112 97.413A8.08 8.08 0 0 1 0 90.383V35.29a8.08 8.08 0 0 1 4.112-7.03L52.507 1.038A8.07 8.07 0 0 1 56.462.002c4.424 0 8.065 3.64 8.065 8.065v3.148l5.748-1.724a8 8 0 0 1 2.318-.34c4.424 0 8.065 3.64 8.065 8.065v3.276l7.065-.883a8 8 0 0 1 1.001-.062c4.424 0 8.065 3.64 8.065 8.065v70.451c0 4.425-3.641 8.066-8.066 8.066a8 8 0 0 1-1-.062l-7.065-.883v3.275c0 4.425-3.641 8.066-8.066 8.066a8 8 0 0 1-2.318-.34l-5.748-1.724zm0-8.421 8.066 2.42V17.216l-8.066 2.42zm16.132-77.418v68.435l8.066 1.008V27.611zM0 87.98V37.694zm8.066-52.689v55.093l48.395 27.222V8.069zm8.066 5.365 8.066-4.033v52.428l-8.066-4.033z" style="fill-rule:nonzero" transform="translate(14.602 -.002)scale(1.01855)"/></svg>