<svg xmlns="http://www.w3.org/2000/svg" xml:space="preserve" style="fill-rule:evenodd;clip-rule:evenodd;stroke-linejoin:round;stroke-miterlimit:2" viewBox="0 0 97 126" width="97" height="126"><path d="M3.209 88.556V37.117a7.53 7.53 0 0 1 3.839-6.564L52.234 5.136A7.53 7.53 0 0 1 63.457 11.7v2.938l5.367-1.61a7.53 7.53 0 0 1 9.695 7.213v3.057l6.597-.825a7.53 7.53 0 0 1 8.465 7.473v65.779a7.53 7.53 0 0 1-8.465 7.473l-6.597-.825v3.057a7.53 7.53 0 0 1-9.695 7.213l-5.367-1.61v2.938a7.53 7.53 0 0 1-11.223 6.564L7.048 95.118a7.53 7.53 0 0 1-3.839-6.564Z" style="fill:#fff;fill-rule:nonzero"/><path d="M64.527 114.458v3.147a8.066 8.066 0 0 1-12.02 7.03L4.112 97.413A8.07 8.07 0 0 1 0 90.383V35.29a8.07 8.07 0 0 1 4.112-7.03L52.507 1.038a8.065 8.065 0 0 1 12.02 7.03v3.147l5.748-1.724a8.065 8.065 0 0 1 10.383 7.726v3.275l7.065-.883a8.065 8.065 0 0 1 9.066 8.003v70.451a8.066 8.066 0 0 1-9.066 8.004l-7.065-.883v3.275a8.066 8.066 0 0 1-10.384 7.726l-5.748-1.724Zm0-8.421 8.066 2.42V17.216l-8.066 2.42zm16.132-77.418v68.435l8.066 1.008V27.611zM0 87.98V37.694zm8.066-52.689v55.093l48.395 27.222V8.069zm8.066 5.365 8.066-4.033v52.428l-8.066-4.033z" style="fill-rule:nonzero"/></svg>